<svg id="Lag_1" data-name="Lag 1" xmlns="http://www.w3.org/2000/svg" viewBox="0 0 92.68 118.35"><defs><style>.cls-1{fill:#42423f;}</style></defs><title>pilop</title><path class="cls-1" d="M41.67,5.6,9.34,38.88A10.28,10.28,0,0,0,24.09,53.21L49.58,27,75.82,52.47A10.28,10.28,0,0,0,90.15,37.72L56.89,5.38a10.26,10.26,0,0,0-7.33-2.89h-.33A10.28,10.28,0,0,0,41.67,5.6Z" transform="translate(-1.18 -2.49)"/><path class="cls-1" d="M50.16,44.1h-.33a10.28,10.28,0,0,0-7.57,3.11L9.93,80.5A10.28,10.28,0,1,0,24.68,94.83L50.18,68.6,76.42,94.09A10.28,10.28,0,0,0,90.75,79.35h0L57.48,47A10.3,10.3,0,0,0,50.16,44.1Z" transform="translate(-1.18 -2.49)"/><text x="-1.18" y="-2.49"/></svg>